<svg xmlns="http://www.w3.org/2000/svg" viewBox="0 0 36.3945 42.8398">
  <title>long_arrow</title>
  <g id="620b0844-e904-4832-a040-16aa81596a11" data-name="Layer 2">
    <g id="0de27285-677a-43a9-9131-69f5f17959b3" data-name="Layer 1">
      <g>
        <path d="M18.1973,42.84a3.5,3.5,0,0,1-3.5-3.5V11.95L5.9746,20.6729a3.5,3.5,0,0,1-4.9492-4.9493L15.7227,1.0254A3.5,3.5,0,0,1,21.6973,3.5V39.34A3.5,3.5,0,0,1,18.1973,42.84Z" fill="#24b8eb"/>
        <path d="M32.8945,21.6982A3.489,3.489,0,0,1,30.42,20.6729L15.7227,5.9746a3.5,3.5,0,1,1,4.9492-4.9492L35.3691,15.7236a3.5,3.5,0,0,1-2.4746,5.9746Z" fill="#24b8eb"/>
      </g>
    </g>
  </g>
</svg>
