<?xml version="1.0" encoding="utf-8"?>
<!-- Generator: Adobe Illustrator 22.0.1, SVG Export Plug-In . SVG Version: 6.00 Build 0)  -->
<svg version="1.1" id="Layer_1" xmlns="http://www.w3.org/2000/svg" xmlns:xlink="http://www.w3.org/1999/xlink" x="0px" y="0px"
	 viewBox="0 0 87 88.2" style="enable-background:new 0 0 87 88.2;" xml:space="preserve">
<style type="text/css">
	.st0{clip-path:url(#SVGID_2_);}
	.st1{fill:#24B8EB;}
</style>
<g>
	<defs>
		<rect id="SVGID_1_" y="0" width="87" height="88.2"/>
	</defs>
	<clipPath id="SVGID_2_">
		<use xlink:href="#SVGID_1_"  style="overflow:visible;"/>
	</clipPath>
	<g class="st0">
		<path class="st1" d="M53.7,17c-1.9,0-3.5-1.6-3.5-3.5c0-3.6-2.9-6.5-6.5-6.5s-6.5,2.9-6.5,6.5c0,1.9-1.6,3.5-3.5,3.5
			s-3.5-1.6-3.5-3.5C30.2,6.1,36.3,0,43.7,0c7.4,0,13.5,6.1,13.5,13.5C57.2,15.4,55.6,17,53.7,17z"/>
	</g>
	<g class="st0">
		<path class="st1" d="M44.9,88.2c-23.4,0-41.1-4.1-42.2-4.3c-1.8-0.4-3-2.2-2.7-4l10-60c0.2-1,0.7-1.9,1.6-2.4
			c0.8-0.5,1.9-0.7,2.8-0.4c0.3,0.1,29.6,8.3,58.1,0c1-0.3,2-0.1,2.8,0.4c0.8,0.5,1.4,1.4,1.6,2.4l10,60c0.3,1.8-0.9,3.6-2.6,4
			C70.7,87.2,57,88.2,44.9,88.2z M7.5,77.8c9.9,1.9,40.9,6.6,72,0.1l-8.8-52.9c-23.2,5.7-45.6,1.9-54.4-0.1L7.5,77.8z"/>
	</g>
</g>
</svg>
