<?xml version="1.0" encoding="utf-8"?>
<!-- Generator: Adobe Illustrator 22.0.1, SVG Export Plug-In . SVG Version: 6.00 Build 0)  -->
<svg version="1.1" id="Layer_1" xmlns="http://www.w3.org/2000/svg" xmlns:xlink="http://www.w3.org/1999/xlink" x="0px" y="0px"
	 viewBox="0 0 226.8 56.7" style="enable-background:new 0 0 226.8 56.7;" xml:space="preserve">
<style type="text/css">
	.st0{fill:#FFFFFF;}
</style>
<g>
	<path class="st0" d="M105,55.9c-3.7,0-7.2-1.6-9.6-4.3c-0.5-0.6-0.8-1.3-0.7-2c0-0.8,0.4-1.5,0.9-2c0.5-0.5,1.2-0.7,1.9-0.7
		c0.8,0,1.6,0.3,2.1,0.9c1.4,1.5,3.4,2.4,5.4,2.4c4,0,7.3-3.3,7.3-7.3v-2.8c-2.2,1.5-4.7,2.3-7.3,2.3c-7.1,0-13-5.8-13-13v-13
		c0-1.6,1.3-2.8,2.8-2.8c1.6,0,2.8,1.3,2.8,2.8v13c0,4,3.3,7.3,7.3,7.3c4,0,7.3-3.3,7.3-7.3v-13c0-1.6,1.3-2.8,2.8-2.8
		c1.6,0,2.8,1.3,2.8,2.8v13c0,0.1,0,0.2,0,0.2l0,0.1c0,0.1,0,0.1,0,0.2v13C117.9,50.1,112.1,55.9,105,55.9z"/>
	<path class="st0" d="M26.8,42.7c-1.6,0-2.8-1.3-2.8-2.8v-0.2c-2.5,1.9-5.6,3-8.7,3c-7.9,0-14.4-6.5-14.4-14.4
		c0-7.9,6.5-14.4,14.4-14.4c3.2,0,6.2,1,8.7,3V3.2c0-1.6,1.3-2.8,2.8-2.8c1.6,0,2.8,1.3,2.8,2.8v36.6C29.7,41.4,28.4,42.7,26.8,42.7
		z M15.3,19.4c-4.8,0-8.7,3.9-8.7,8.7c0,4.8,3.9,8.7,8.7,8.7c4.8,0,8.7-3.9,8.7-8.7C24,23.3,20.1,19.4,15.3,19.4z"/>
	<path class="st0" d="M146.7,42.6c-1.6,0-2.8-1.3-2.8-2.8v-0.2c-2.5,1.9-5.6,3-8.7,3c-7.9,0-14.4-6.5-14.4-14.4
		c0-7.9,6.5-14.4,14.4-14.4c3.2,0,6.2,1,8.7,3v-0.1c0-1.6,1.3-2.8,2.8-2.8s2.8,1.3,2.8,2.8v23.2C149.5,41.4,148.2,42.6,146.7,42.6z
		 M135.1,19.4c-4.8,0-8.7,3.9-8.7,8.7c0,4.8,3.9,8.7,8.7,8.7c4.8,0,8.7-3.9,8.7-8.7C143.8,23.3,139.9,19.4,135.1,19.4z"/>
	<path class="st0" d="M46,42.6c-7.1,0-13-5.8-13-13v-13c0-1.6,1.3-2.8,2.8-2.8c1.6,0,2.8,1.3,2.8,2.8v13c0,4,3.3,7.3,7.3,7.3
		s7.3-3.3,7.3-7.3v-13c0-1.6,1.3-2.8,2.8-2.8c1.6,0,2.8,1.3,2.8,2.8v13C59,36.7,53.2,42.6,46,42.6z"/>
	<path class="st0" d="M65.2,42.6c-1.6,0-2.8-1.3-2.8-2.8V16.6c0-1.6,1.3-2.8,2.8-2.8c1.4,0,2.6,1,2.8,2.4c2.2-1.6,4.8-2.4,7.5-2.4
		c7.1,0,13,5.8,13,13v13c0,1.6-1.3,2.8-2.8,2.8c-1.6,0-2.8-1.3-2.8-2.8v-13c0-4-3.3-7.3-7.3-7.3c-4,0-7.3,3.3-7.3,7.3v13
		c0,1.2-0.7,2.2-1.8,2.6C66.1,42.5,65.7,42.6,65.2,42.6z"/>
	<path class="st0" d="M155.8,42.6c-1.6,0-2.8-1.3-2.8-2.8V16.6c0-1.6,1.3-2.8,2.8-2.8c1.4,0,2.5,1,2.8,2.3c2.2-1.5,4.7-2.3,7.3-2.3
		c7.1,0,13,5.8,13,13v13c0,1.6-1.3,2.8-2.8,2.8c-1.6,0-2.8-1.3-2.8-2.8v-13c0-4-3.3-7.3-7.3-7.3c-4,0-7.3,3.3-7.3,7.3v13
		C158.6,41.4,157.3,42.6,155.8,42.6z"/>
	<path class="st0" d="M207.5,42.6c-1.6,0-2.8-1.3-2.8-2.8v-0.2c-2.5,1.9-5.6,3-8.7,3c-7.9,0-14.4-6.5-14.4-14.4
		c0-7.9,6.5-14.4,14.4-14.4c3.2,0,6.2,1,8.7,3v-0.1c0-1.6,1.3-2.8,2.8-2.8s2.8,1.3,2.8,2.8v23.2C210.4,41.4,209.1,42.6,207.5,42.6z
		 M196,19.4c-4.8,0-8.7,3.9-8.7,8.7c0,4.8,3.9,8.7,8.7,8.7c4.8,0,8.7-3.9,8.7-8.7C204.7,23.3,200.8,19.4,196,19.4z"/>
</g>
</svg>
