<svg xmlns="http://www.w3.org/2000/svg" xmlns:xlink="http://www.w3.org/1999/xlink" viewBox="0 0 86.9741 86.9995">
  <defs>
    <clipPath id="13bb9ee9-5ab8-416d-8059-095f7ade2947" transform="translate(-0.0005)">
      <rect y="0.0005" width="86.974" height="87" fill="none"/>
    </clipPath>
  </defs>
  <title>logocust_serv</title>
  <g id="36522555-8740-4db5-9814-0a6ebd3c6d5a" data-name="Layer 2">
    <g id="4c527588-b80d-4106-8bb3-b847dd55a03c" data-name="Layer 1">
      <g clip-path="url(#13bb9ee9-5ab8-416d-8059-095f7ade2947)">
        <path d="M43.4873,68.9927a20.0851,20.0851,0,0,1-20.063-20.0615,3.5,3.5,0,0,1,7,0,13.0628,13.0628,0,0,0,26.1255,0,3.5,3.5,0,0,1,7,0A20.085,20.085,0,0,1,43.4873,68.9927Z" transform="translate(-0.0005)" fill="#24b8eb"/>
        <path d="M33.6885,43.998a3.5014,3.5014,0,0,1-3.3941-2.6562c-1.0341-4.1577-.1709-10.6113-.0693-11.3335a3.5,3.5,0,0,1,6.9316.9756c-.3095,2.2143-.6025,6.5254-.0693,8.6684a3.5034,3.5034,0,0,1-3.3989,4.3457Z" transform="translate(-0.0005)" fill="#24b8eb"/>
        <path d="M53.6807,43.998a3.5011,3.5011,0,0,1-3.3936-2.6567c-1.0342-4.1572-.1709-10.61-.0693-11.3325a3.5,3.5,0,0,1,6.9316.9746c-.31,2.2144-.6015,6.5264-.0693,8.6694a3.5033,3.5033,0,0,1-3.3994,4.3452Z" transform="translate(-0.0005)" fill="#24b8eb"/>
        <path d="M43.4863,87A43.5352,43.5352,0,0,1,.0005,43.5137a3.5,3.5,0,0,1,7,0,36.4871,36.4871,0,0,0,72.9741,0,3.5,3.5,0,0,1,7,0A43.5364,43.5364,0,0,1,43.4863,87Z" transform="translate(-0.0005)" fill="#24b8eb"/>
        <path d="M83.4736,47.0132a3.5,3.5,0,0,1-3.5-3.4995C79.9736,20.9912,61.9531,7,32.9448,7a3.5,3.5,0,0,1,0-7C65.7656,0,86.9736,17.08,86.9736,43.5137A3.5,3.5,0,0,1,83.4736,47.0132Z" transform="translate(-0.0005)" fill="#24b8eb"/>
        <path d="M3.5005,47.0142a3.5,3.5,0,0,1-3.5-3.5c0-11.4742,7.376-23.45,18.3545-29.8A36.8432,36.8432,0,0,1,44.2012,9.5693a3.5,3.5,0,1,1-1.4229,6.8536,29.8463,29.8463,0,0,0-20.9194,3.3515c-8.7481,5.06-14.8584,14.8223-14.8584,23.74A3.5,3.5,0,0,1,3.5005,47.0142Z" transform="translate(-0.0005)" fill="#24b8eb"/>
      </g>
    </g>
  </g>
</svg>
