<svg xmlns="http://www.w3.org/2000/svg" viewBox="0 0 87.8153 87.0847">
  <title>edit</title>
  <g id="a9968ef1-5eb1-46be-a84d-29ad07375540" data-name="Layer 2">
    <g id="9876295a-52c9-47ee-90ca-ad59c4d97f4b" data-name="Layer 1">
      <path d="M38.8288,87.0847c-7.9893,0-16.6792-.1777-24.7759-.709C7.2941,85.9334,2.2316,81.0076.841,73.5232-.9617,63.8211.6789,21.9363.7819,19.3523a13.5151,13.5151,0,0,1,13.5-13.4248H41.01a3.5,3.5,0,0,1,0,7H14.2819a6.5075,6.5075,0,0,0-6.5,6.5q0,.07-.0029.1406c-.4878,12.11-1.4483,45.1817-.0562,52.6758.3794,2.04,1.7994,6.82,6.7881,7.1475,23.7271,1.5547,52.7461.0127,53.0371-.003.0635-.0029.1265-.0048.19-.0048a6.5076,6.5076,0,0,0,6.5-6.5V47.8992a3.5,3.5,0,0,1,7,0V72.8836a13.5163,13.5163,0,0,1-13.4014,13.5C66.6374,86.4461,54,87.0847,38.8288,87.0847Z" fill="#24b8eb"/>
      <path d="M55.4636,49.655H42.3088a3.5,3.5,0,0,1-3.5-3.5V33.0007a3.5023,3.5023,0,0,1,.7983-2.2255C50.6418,17.38,68.0763,1.57,68.8132.9041a3.5,3.5,0,0,1,4.8227.1211L86.79,14.18a3.5,3.5,0,0,1,.1,4.8457c-.1416.1533-14.333,15.5439-29,29.6523A3.5,3.5,0,0,1,55.4636,49.655Zm-9.6548-7h8.2417C64.7433,32.3113,75.0168,21.4763,79.4523,16.741L71.0617,8.35C65.9885,13.074,54.11,24.3836,45.8088,34.2664Z" fill="#24b8eb"/>
    </g>
  </g>
</svg>
