<svg xmlns="http://www.w3.org/2000/svg" viewBox="0 0 102 101.882">
  <title>fb_logo</title>
  <g id="c1a1bd31-f34d-4554-a78c-671f60f7b38e" data-name="Layer 2">
    <g id="2de9aa82-db02-4ca0-ab51-233600cdd38f" data-name="Isolation Mode">
      <path d="M96.37,0H5.629A5.6256,5.6256,0,0,0,0,5.623V96.259a5.6262,5.6262,0,0,0,5.629,5.623H54.481V62.428H41.188V47.052H54.481V35.713c0-13.16,8.047-20.325,19.799-20.325a108.9221,108.9221,0,0,1,11.878.606V29.746l-8.151.004c-6.392,0-7.629,3.033-7.629,7.485v9.817H85.621L83.637,62.428H70.378v39.454H96.37A5.6271,5.6271,0,0,0,102,96.259V5.623A5.6264,5.6264,0,0,0,96.37,0" fill="#3b5998"/>
    </g>
  </g>
</svg>
