<svg xmlns="http://www.w3.org/2000/svg" viewBox="0 0 503.841 503.841">
  <title>insta_logo</title>
  <g id="e2cfa0ce-8117-4990-a438-8f4dd39eb045" data-name="Layer 2">
    <g id="8b915dea-eb84-45af-aa05-63419e596946" data-name="Logo">
      <g>
        <path d="M251.9205,45.3911c67.2658,0,75.2332.2565,101.7973,1.4685C378.28,47.98,391.619,52.0841,400.4961,55.534a78.0519,78.0519,0,0,1,28.966,18.8445,78.0537,78.0537,0,0,1,18.845,28.9665c3.45,8.877,7.5536,22.2164,8.6743,46.7778,1.212,26.5645,1.4686,34.5319,1.4686,101.7977s-.2566,75.2332-1.4686,101.7973c-1.1207,24.5619-5.2245,37.9012-8.6743,46.7783a83.4276,83.4276,0,0,1-47.811,47.811c-8.8771,3.45-22.2164,7.5536-46.7783,8.6743-26.56,1.212-34.5269,1.4686-101.7973,1.4686s-75.237-.2566-101.7973-1.4686c-24.5618-1.1207-37.9012-5.2245-46.7782-8.6743a78.0529,78.0529,0,0,1-28.9661-18.8446A78.0535,78.0535,0,0,1,55.534,400.4961c-3.45-8.8771-7.5536-22.2164-8.6744-46.7779-1.212-26.5645-1.4685-34.5319-1.4685-101.7977s.2565-75.2332,1.4685-101.7973c1.1208-24.5618,5.2245-37.9012,8.6744-46.7782A78.0515,78.0515,0,0,1,74.3785,74.3789,78.0522,78.0522,0,0,1,103.345,55.534c8.877-3.45,22.2164-7.5536,46.7778-8.6744,26.5645-1.212,34.5319-1.4685,101.7977-1.4685m0-45.3911C183.5029,0,174.924.29,148.0541,1.5157c-26.8145,1.2236-45.1267,5.4822-61.1514,11.71a123.4882,123.4882,0,0,0-44.62,29.0568,123.4882,123.4882,0,0,0-29.0568,44.62C6.9979,102.9274,2.7393,121.24,1.5157,148.0541.29,174.924,0,183.5027,0,251.9205S.29,328.917,1.5157,355.7869c1.2236,26.8146,5.4822,45.1268,11.71,61.1514a123.4891,123.4891,0,0,0,29.0568,44.62,123.4869,123.4869,0,0,0,44.62,29.0568c16.0247,6.2277,34.3369,10.4863,61.1514,11.71,26.87,1.2262,35.4488,1.5157,103.8664,1.5157s76.9965-.29,103.8664-1.5157c26.8146-1.2235,45.1268-5.4821,61.1514-11.71a128.8162,128.8162,0,0,0,73.6772-73.6772c6.2277-16.0246,10.4863-34.3368,11.71-61.1514,1.2259-26.87,1.5157-35.4487,1.5157-103.8664s-.29-76.9965-1.5157-103.8664c-1.2235-26.8145-5.4821-45.1267-11.71-61.1514a123.4869,123.4869,0,0,0-29.0568-44.62,123.4874,123.4874,0,0,0-44.62-29.0568c-16.0246-6.2276-34.3368-10.4862-61.1514-11.71C328.917.29,320.3382,0,251.9205,0Z"/>
        <path d="M251.9205,122.5559A129.3646,129.3646,0,1,0,381.2851,251.9205,129.3646,129.3646,0,0,0,251.9205,122.5559Zm0,213.3381a83.9735,83.9735,0,1,1,83.9735-83.9735A83.9735,83.9735,0,0,1,251.9205,335.894Z"/>
        <circle cx="386.3963" cy="117.4447" r="30.2305"/>
      </g>
    </g>
  </g>
</svg>
