<svg id="9e0d65ad-3c57-4c4b-b757-ef8a97f99e4b" data-name="Layer 1" xmlns="http://www.w3.org/2000/svg" viewBox="0 0 86.4567 70.3987">
  <title>Untitled-1</title>
  <path d="M987.3848,576.3987a2.9325,2.9325,0,0,1-1.2986-.3011,34.2849,34.2849,0,0,1-8.3978-5.7988c-.8258-.7733-1.6271-1.6007-2.3846-2.4618-.044.0245-.0884.049-.1328.0732l-.08.0516c-4.3674,2.7657-9.3162,5.8993-20.19,7.2091a54.4519,54.4519,0,0,1-6.4865.394,42.4061,42.4061,0,0,1-13.875-2.1744c-7.1632-2.48-12.4964-7.05-15.4223-13.2163a23.609,23.609,0,0,1-1.1645-16.4731c.0143-.0519.0308-.1043.0488-.1568,3.2879-9.5937,12.2126-15.553,23.2917-15.553a33.7367,33.7367,0,0,1,24.1871,10.55c.511-12.6373,6.2828-23.547,15.915-30.0229A14.8164,14.8164,0,0,1,989.6216,506a13.2828,13.2828,0,0,1,5.4824,1.1518c4.4614,2.0036,7.3545,6.2175,8.1461,11.8655.92,7.406-1.2352,15.7268-6.4051,24.7366a90.6458,90.6458,0,0,1-12.2421,16.3151,2.9034,2.9034,0,0,1-2.1436.9677,3.1436,3.1436,0,0,1-2.2749-1.0133,2.9527,2.9527,0,0,1,.1213-4.0147,90.2521,90.2521,0,0,0,10.82-14.2743c4.9264-8.2923,7.03-15.6744,6.252-21.941-.4948-3.5264-2.1647-6.0987-4.702-7.2383a7.4273,7.4273,0,0,0-3.0659-.638,9.0012,9.0012,0,0,0-4.9212,1.5243c-6.8922,4.6343-11.4716,12.1573-12.8937,21.1829a37.4449,37.4449,0,0,0,4.5344,24.57l.1738.2946c.0944.1558.1915.3129.29.4691l.0907.13a32.9006,32.9006,0,0,0,3.884,4.937l.1152.1137c.2828.2874.5662.5665.8558.8382a28.3957,28.3957,0,0,0,6.9484,4.7988,2.962,2.962,0,0,1-1.3023,5.6231Zm-46.1005-42.4838c-8.5621,0-15.1627,4.2935-17.6569,11.4856-3.5881,12.9182,6.3887,20.155,12.85,22.3914a36.45,36.45,0,0,0,11.9248,1.8509,48.5938,48.5938,0,0,0,5.7908-.3533c9.4114-1.1337,13.5866-3.71,17.5566-6.2238q-.1584-.2523-.313-.5079a45.6951,45.6951,0,0,1-2.7235-5.891C964.9741,547.6015,959.329,533.9149,941.2843,533.9149Z" transform="translate(-917 -506)" fill="#00c0f3"/>
</svg>
