<svg xmlns="http://www.w3.org/2000/svg" viewBox="0 0 146.8 120.41">
  <title>mc_logo</title>
  <g id="fe68d3ac-ea32-4990-b38e-c2bced45c33e" data-name="Layer 2">
    <g id="b15d2412-d1b4-4713-92a4-6c9d53c097fa" data-name="Layer 1">
      <g id="8dc8c66e-974d-4d08-a595-a0c6ca250d24" data-name="Layer 2">
        <g id="f02916cf-cdb3-431a-b18f-a06af89eaf8d" data-name="Layer 1-2">
          <rect width="146.8" height="120.41" fill="none"/>
          <path d="M36.35,105.26v-6a3.56,3.56,0,0,0-3.76-3.8,3.7,3.7,0,0,0-3.36,1.7,3.51,3.51,0,0,0-3.16-1.7,3.16,3.16,0,0,0-2.8,1.42V95.7H21.19v9.56h2.1V100a2.24,2.24,0,0,1,2.34-2.54c1.38,0,2.08.9,2.08,2.52v5.32h2.1V100a2.25,2.25,0,0,1,2.34-2.54c1.42,0,2.1.9,2.1,2.52v5.32ZM67.42,95.7H64V92.8H61.9v2.9H60v1.9h1.94V102c0,2.22.86,3.54,3.32,3.54a4.88,4.88,0,0,0,2.6-.74l-.6-1.78a3.84,3.84,0,0,1-1.84.54c-1,0-1.38-.64-1.38-1.6V97.6h3.4Zm17.74-.24a2.82,2.82,0,0,0-2.52,1.4V95.7H80.58v9.56h2.08V99.9c0-1.58.68-2.46,2-2.46a3.39,3.39,0,0,1,1.3.24l.64-2a4.45,4.45,0,0,0-1.48-.26Zm-26.82,1a7.1505,7.1505,0,0,0-3.9-1c-2.42,0-4,1.16-4,3.06,0,1.56,1.16,2.52,3.3,2.82l1,.14c1.14.16,1.68.46,1.68,1,0,.74-.76,1.16-2.18,1.16a5.09,5.09,0,0,1-3.18-1l-1,1.62a6.9,6.9,0,0,0,4.14,1.24c2.76,0,4.36-1.3,4.36-3.12s-1.26-2.56-3.34-2.86l-1-.14c-.9-.12-1.62-.3-1.62-.94s.68-1.12,1.82-1.12a6.16,6.16,0,0,1,3,.82Zm55.71-1a2.82,2.82,0,0,0-2.52,1.4V95.7h-2.06v9.56h2.08V99.9c0-1.58.68-2.46,2-2.46a3.39,3.39,0,0,1,1.3.24l.64-2a4.45,4.45,0,0,0-1.48-.26Zm-26.8,5a4.83,4.83,0,0,0,4.649,5.0045q.2254.0082.451-.0045a5,5,0,0,0,3.44-1.14l-1-1.68a4.2,4.2,0,0,1-2.5.86,3.07,3.07,0,0,1,0-6.12,4.2,4.2,0,0,1,2.5.86l1-1.68a5,5,0,0,0-3.44-1.14,4.83,4.83,0,0,0-5.0955,4.549q-.0127.2253-.0045.451Zm19.48,0V95.7h-2.08v1.16a3.63,3.63,0,0,0-3-1.4,5,5,0,0,0,0,10,3.63,3.63,0,0,0,3-1.4v1.16h2.08Zm-7.74,0a2.87,2.87,0,1,1-.0061.2265Q98.9826,100.5733,98.99,100.46Zm-25.1-5a5,5,0,0,0,.14,10h0a5.81,5.81,0,0,0,3.97-1.3l-1-1.54a4.55,4.55,0,0,1-2.78,1,2.65,2.65,0,0,1-2.86-2.34h7.1v-.8c0-3-1.86-5-4.54-5Zm0,1.86a2.37,2.37,0,0,1,2.42,2.3189V99.64h-5a2.46,2.46,0,0,1,2.54-2.32ZM126,100.48V91.86h-2v5a3.63,3.63,0,0,0-3-1.4,5,5,0,0,0,0,10,3.63,3.63,0,0,0,3-1.4v1.16h2Zm3.47,3.39a.9616.9616,0,0,1,.9.57.93.93,0,0,1,0,.74.9555.9555,0,0,1-.52.5.94.94,0,0,1-.38.08,1,1,0,0,1-.9-.58.94.94,0,0,1,0-.74.9706.9706,0,0,1,.93-.57Zm0,1.69a.71.71,0,0,0,.29-.06.75.75,0,0,0,.23-.16.72.72,0,0,0-.23-1.16.72.72,0,0,0-.29-.06.749.749,0,0,0-.29.06.73.73,0,0,0-.24.16.7255.7255,0,0,0,.56,1.22Zm.06-1.19a.4.4,0,0,1,.26.08.25.25,0,0,1,.09.21.24.24,0,0,1-.07.18.3506.3506,0,0,1-.21.09l.29.33h-.23l-.27-.33h-.09v.33h-.19v-.88Zm-.22.17v.24h.22a.21.21,0,0,0,.12,0,.1.1,0,0,0,0-.09.1.1,0,0,0,0-.09.21.21,0,0,0-.12,0Zm-11-4.06a2.87,2.87,0,1,1-.0061.2265Q118.3026,100.5933,118.31,100.48Zm-70.23,0V95.7H46v1.16a3.63,3.63,0,0,0-3-1.4,5,5,0,1,0,0,10,3.63,3.63,0,0,0,3-1.4v1.16h2.08Zm-7.74,0a2.6717,2.6717,0,1,1-.0258.2469q-.0024-.1236.0058-.2469Z" fill="#fff"/>
          <g id="6e60a74b-ad8a-4109-baf1-211dd415da3c" data-name=" Group ">
            <rect x="57.65" y="22.85" width="31.5" height="56.61" fill="#ff5f00"/>
            <path id="855cb0dc-ac3a-4e84-866a-c86481cecbf7" data-name=" Path " d="M59.65,51.16A35.94,35.94,0,0,1,73.4,22.85a36,36,0,1,0,0,56.61A35.94,35.94,0,0,1,59.65,51.16Z" fill="#eb001b"/>
            <path d="M131.65,51.16A36,36,0,0,1,73.4,79.46a36,36,0,0,0,0-56.61,36,36,0,0,1,58.25,28.3Z" fill="#f79e1b"/>
            <path d="M128.21,73.46V72.3h.47v-.24h-1.19v.24H128v1.16Zm2.31,0v-1.4h-.36l-.42,1-.42-1H129v1.4h.26V72.41l.39.91h.27l.39-.91v1.06Z" fill="#f79e1b"/>
          </g>
        </g>
      </g>
    </g>
  </g>
</svg>
