<svg xmlns="http://www.w3.org/2000/svg" xmlns:xlink="http://www.w3.org/1999/xlink" viewBox="0 0 87.0006 86.9865">
  <defs>
    <clipPath id="9192c62f-1822-4c76-81b8-908bb00ba30b" transform="translate(0 -0.0006)">
      <rect x="0.0007" width="87" height="86.986" fill="none"/>
    </clipPath>
  </defs>
  <title>offer</title>
  <g id="a66c5435-71cb-4d43-ab3b-6b62f43fcf39" data-name="Layer 2">
    <g id="33dafdb9-d057-4f04-b975-582fd1f1a64c" data-name="Layer 1">
      <g clip-path="url(#9192c62f-1822-4c76-81b8-908bb00ba30b)">
        <path d="M17.3747,86.986a3.4995,3.4995,0,0,1-3.416-4.2637l6.7622-30.23a3.5,3.5,0,1,1,6.831,1.5273L22.3376,77.3317C27.6994,74.65,35.4245,70.3092,41.1462,65.109a3.5008,3.5008,0,0,1,4.708,0c5.7217,5.1993,13.4482,9.5411,18.81,12.2227L59.4489,54.0192A3.5012,3.5012,0,0,1,60.9128,50.35,75.1327,75.1327,0,0,0,76.3454,36.6217c-12.3809.3672-17.4619-.3457-18.1455-.4536a3.5041,3.5041,0,0,1-2.8057-2.3564C52.35,24.6628,46.8591,15.2106,43.5012,9.8761c-3.3589,5.3394-8.854,14.8013-11.8941,23.9356a3.5,3.5,0,0,1-2.8413,2.3623c-.9575.1465-7.9243,1.0752-25.4526.1387a3.5,3.5,0,0,1,.374-6.99,176.224,176.224,0,0,0,22.0288.1358C30.84,15.4958,40.2209,2.0788,40.6374,1.487a3.5,3.5,0,0,1,5.7256-.0005c.416.5923,9.7988,14.0083,14.9228,27.9722a176.2144,176.2144,0,0,0,22.0283-.1363,3.5,3.5,0,0,1,3.2149,5.25c-.2588.4463-6.2285,10.586-19.7344,20.2188l6.249,27.9316a3.5,3.5,0,0,1-4.7392,4.0039C67.68,86.4714,53.92,80.8,43.5,72.3112,33.0817,80.8,19.322,86.4714,18.6974,86.7262A3.49,3.49,0,0,1,17.3747,86.986Z" transform="translate(0 -0.0006)" fill="#24b8eb"/>
        <path d="M24.1325,56.7565a3.4791,3.4791,0,0,1-1.9492-.5957A84.0187,84.0187,0,0,1,9.7546,45.9743a3.5,3.5,0,0,1,4.9414-4.958,77.087,77.087,0,0,0,11.3926,9.3359,3.5,3.5,0,0,1-1.9561,6.4043Z" transform="translate(0 -0.0006)" fill="#24b8eb"/>
      </g>
    </g>
  </g>
</svg>
