<svg xmlns="http://www.w3.org/2000/svg" viewBox="0 0 32.3823 65.9399">
  <title>payment</title>
  <g id="bf791c02-9324-43d6-8af4-e6de4f1e3865" data-name="Layer 2">
    <g id="7b204d94-74d7-4e00-b3fe-9db4fc5b2782" data-name="Layer 1">
      <path d="M16.2935,65.94a2.0994,2.0994,0,0,1-2.1465-2.1464V57.7261L13.07,57.6714c-4.5254-.2256-8.686-1.2315-10.8584-2.624C.5947,54.0464.41,53.1626.41,52.5845a2.39,2.39,0,0,1,2.352-2.42,9.279,9.279,0,0,1,2.4248.7333,28.4425,28.4425,0,0,0,7.7124,1.9942l1.2481.126V34.2646L12.3794,33.97C4.3784,33.0088,0,28.3843,0,20.9414c0-7.5635,4.8037-12.61,13.1787-13.8457l.9683-.1426V2.2153A2.1585,2.1585,0,0,1,16.2935,0a2.2181,2.2181,0,0,1,2.2158,2.2153V6.7588l1.0556.0732c4.2.29,7.9112,1.357,9.9258,2.8545a2.7443,2.7443,0,0,1,1.1836,2.0283,2.34,2.34,0,0,1-2.2832,2.4888,6.3873,6.3873,0,0,1-2.1953-.7358,19.3155,19.3155,0,0,0-6.44-1.856l-1.2461-.1245V29.7979h1.4726c8.5752,1.0747,12.4,5.1323,12.4,13.15,0,8.1421-4.4638,13.12-12.9082,14.3931l-.9648.1455v6.3067A2.1593,2.1593,0,0,1,16.2935,65.94Zm2.2158-12.9834,1.4179-.3671c4.3731-1.1309,6.59-4.3291,6.59-9.5044,0-4.625-1.8535-6.8692-6.61-8.0059l-1.3974-.3335Zm-5.74-40.9819c-4.6059,1.0147-7.04,4.0679-7.04,8.83,0,4.5171,2.0357,6.8369,7.0259,8.0068l1.3926.3262V11.6714Z" fill="#24b8eb"/>
    </g>
  </g>
</svg>
