<svg xmlns="http://www.w3.org/2000/svg" viewBox="0 0 86.9746 88">
  <title>plus</title>
  <g id="35654094-9baa-44e0-9c61-efa3d8b07423" data-name="Layer 2">
    <g id="9d7d77ff-99a0-463f-a76d-822f834ca6f7" data-name="Layer 1">
      <path d="M43.4873,88A43.5363,43.5363,0,0,1,0,44.5137C0,33.04,7.377,21.0645,18.3564,14.7148A36.6981,36.6981,0,0,1,36.71,9.8037a3.5,3.5,0,0,1,0,7,29.6957,29.6957,0,0,0-14.85,3.9707C13.1113,25.834,7,35.5967,7,44.5137a36.4873,36.4873,0,0,0,72.9746,0C79.9746,21.374,62.3369,7,33.9453,7a3.5,3.5,0,0,1,0-7C66.1592,0,86.9746,17.4727,86.9746,44.5137A43.5363,43.5363,0,0,1,43.4873,88Z" fill="#24b8eb"/>
      <g>
        <path d="M43.4873,63.6426a3.5005,3.5005,0,0,1-3.5-3.5V31.8584a3.5,3.5,0,1,1,7,0V60.1426A3.5005,3.5005,0,0,1,43.4873,63.6426Z" fill="#00b3e6"/>
        <path d="M57.6289,49.5H29.3447a3.5,3.5,0,0,1,0-7H57.6289a3.5,3.5,0,0,1,0,7Z" fill="#00b3e6"/>
      </g>
    </g>
  </g>
</svg>
