<svg xmlns="http://www.w3.org/2000/svg" xmlns:xlink="http://www.w3.org/1999/xlink" viewBox="0 0 87 77.7803">
  <defs>
    <clipPath id="6af04036-e84e-4722-9636-5ff87c8de563">
      <rect y="0.0003" width="87" height="77.78" fill="none"/>
    </clipPath>
  </defs>
  <title>tracking</title>
  <g id="e45f5920-5caa-4ea2-8dc3-97af45b28607" data-name="Layer 2">
    <g id="544bfc24-8bd2-468b-8c42-41219a2196e1" data-name="Layer 1">
      <g clip-path="url(#6af04036-e84e-4722-9636-5ff87c8de563)">
        <path d="M13.5,77.78c-7.4438,0-13.5-5.7422-13.5-12.8S6.0562,52.1787,13.5,52.1787,27,57.9219,27,64.9805,20.9438,77.78,13.5,77.78Zm0-18.6016c-3.584,0-6.5,2.6026-6.5,5.8018s2.916,5.8,6.5,5.8,6.5-2.6016,6.5-5.8S17.084,59.1787,13.5,59.1787Z" fill="#24b8eb"/>
        <path d="M73.4229,77.78c-7.4444,0-13.5-5.7422-13.5-12.8s6.0556-12.8018,13.5-12.8018,13.5,5.7432,13.5,12.8018S80.8672,77.78,73.4229,77.78Zm0-18.6016c-3.584,0-6.5,2.6026-6.5,5.8018s2.916,5.8,6.5,5.8,6.5-2.6016,6.5-5.8S77.0068,59.1787,73.4229,59.1787Z" fill="#24b8eb"/>
        <path d="M63.4268,68.3535a3.5313,3.5313,0,0,1-.7168-.0742,92.0872,92.0872,0,0,0-27.857-.3652,3.5,3.5,0,1,1-.9424-6.9356,97.3423,97.3423,0,0,1,30.2281.4483,3.5,3.5,0,0,1-.7119,6.9267Z" fill="#24b8eb"/>
        <path d="M81,47H6a6.0066,6.0066,0,0,1-6-6V6A6.0066,6.0066,0,0,1,6,0H60.9229a6.0066,6.0066,0,0,1,6,6v6.5278H81a6.0066,6.0066,0,0,1,6,6V41A6.0066,6.0066,0,0,1,81,47ZM66.9229,40H80V19.5278H66.9229ZM7,40H59.9229V7H7ZM81,19.5278h0Z" fill="#24b8eb"/>
      </g>
    </g>
  </g>
</svg>
