<svg xmlns="http://www.w3.org/2000/svg" xmlns:xlink="http://www.w3.org/1999/xlink" viewBox="0 0 444.899 361.551">
  <defs>
    <clipPath id="d7f936a1-2c02-42e6-8594-3e0e96720f86" transform="translate(-32.2772 -93.2551)">
      <rect width="512" height="512.0001" fill="none"/>
    </clipPath>
  </defs>
  <title>twitter</title>
  <g id="535f1bfb-3890-4c3f-ba73-7adf61bf50a5" data-name="Layer 2">
    <g id="9af0ee26-eae0-4d1e-955f-210cc82f1251" data-name="Layer 1">
      <g clip-path="url(#d7f936a1-2c02-42e6-8594-3e0e96720f86)">
        <path d="M477.1761,136.0535a181.6175,181.6175,0,0,1-52.4255,14.3685A91.4385,91.4385,0,0,0,464.8848,99.92a182.7155,182.7155,0,0,1-57.9616,22.1624A91.3516,91.3516,0,0,0,251.3987,205.331,259.1619,259.1619,0,0,1,63.2538,109.9626,91.39,91.39,0,0,0,91.5031,231.8282a91.0146,91.0146,0,0,1-41.3444-11.4243c-.009.3793-.009.7677-.009,1.156a91.3473,91.3473,0,0,0,73.2241,89.4982,91.768,91.768,0,0,1-24.05,3.197,90.4343,90.4343,0,0,1-17.1771-1.6436A91.3753,91.3753,0,0,0,167.41,376.0007,184.1807,184.1807,0,0,1,32.2772,413.7959a258.2939,258.2939,0,0,0,139.9188,41.01c167.8971,0,259.6982-139.0789,259.6982-259.6983q0-5.9332-.2528-11.8216A184.87,184.87,0,0,0,477.1761,136.0535Z" transform="translate(-32.2772 -93.2551)" fill="#fff"/>
      </g>
    </g>
  </g>
</svg>
